<mxfile host="app.diagrams.net" agent="Mozilla/5.0 (Windows NT 10.0; Win64; x64) AppleWebKit/537.36 (KHTML, like Gecko) Chrome/136.0.0.0 Safari/537.36" version="27.0.2">
  <diagram name="Page-1" id="T390PbmfsS9-7DdT44nM">
    <mxGraphModel dx="872" dy="1600" grid="1" gridSize="10" guides="1" tooltips="1" connect="1" arrows="1" fold="1" page="1" pageScale="1" pageWidth="827" pageHeight="1169" math="0" shadow="0">
      <root>
        <mxCell id="0" />
        <mxCell id="1" parent="0" />
        <mxCell id="5Gae5XNbPLnrolawcrM5-1" value="&lt;p data-pm-slice=&quot;1 1 [&amp;quot;list&amp;quot;,{&amp;quot;spread&amp;quot;:true,&amp;quot;start&amp;quot;:1400,&amp;quot;end&amp;quot;:3936},&amp;quot;regular_list_item&amp;quot;,{&amp;quot;start&amp;quot;:1920,&amp;quot;end&amp;quot;:2423},&amp;quot;list&amp;quot;,{&amp;quot;spread&amp;quot;:false,&amp;quot;start&amp;quot;:1959,&amp;quot;end&amp;quot;:2423},&amp;quot;regular_list_item&amp;quot;,{&amp;quot;start&amp;quot;:1959,&amp;quot;end&amp;quot;:2074}]&quot;&gt;&lt;code&gt;&lt;b&gt;EventBookingManager&lt;/b&gt;&lt;/code&gt;&lt;/p&gt;" style="swimlane;fontStyle=0;childLayout=stackLayout;horizontal=1;startSize=30;horizontalStack=0;resizeParent=1;resizeParentMax=0;resizeLast=0;collapsible=1;marginBottom=0;whiteSpace=wrap;html=1;" vertex="1" parent="1">
          <mxGeometry x="100" y="10" width="190" height="140" as="geometry" />
        </mxCell>
        <mxCell id="5Gae5XNbPLnrolawcrM5-2" value="&lt;p data-pm-slice=&quot;1 1 [&amp;quot;list&amp;quot;,{&amp;quot;spread&amp;quot;:true,&amp;quot;start&amp;quot;:1400,&amp;quot;end&amp;quot;:3936},&amp;quot;regular_list_item&amp;quot;,{&amp;quot;start&amp;quot;:1400,&amp;quot;end&amp;quot;:1918},&amp;quot;list&amp;quot;,{&amp;quot;spread&amp;quot;:false,&amp;quot;start&amp;quot;:1439,&amp;quot;end&amp;quot;:1918},&amp;quot;regular_list_item&amp;quot;,{&amp;quot;start&amp;quot;:1439,&amp;quot;end&amp;quot;:1569},&amp;quot;list&amp;quot;,{&amp;quot;spread&amp;quot;:false,&amp;quot;start&amp;quot;:1477,&amp;quot;end&amp;quot;:1569},&amp;quot;regular_list_item&amp;quot;,{&amp;quot;start&amp;quot;:1477,&amp;quot;end&amp;quot;:1569}]&quot;&gt;&lt;code&gt;+ events:&amp;nbsp;&lt;/code&gt;&lt;span style=&quot;background-color: transparent; color: light-dark(rgb(0, 0, 0), rgb(255, 255, 255));&quot;&gt;TicketEventManager&lt;/span&gt;&lt;/p&gt;" style="text;strokeColor=default;fillColor=none;align=left;verticalAlign=middle;spacingLeft=4;spacingRight=4;overflow=hidden;points=[[0,0.5],[1,0.5]];portConstraint=eastwest;rotatable=0;whiteSpace=wrap;html=1;strokeWidth=1;" vertex="1" parent="5Gae5XNbPLnrolawcrM5-1">
          <mxGeometry y="30" width="190" height="50" as="geometry" />
        </mxCell>
        <mxCell id="5Gae5XNbPLnrolawcrM5-3" value="&lt;p data-pm-slice=&quot;1 1 [&amp;quot;list&amp;quot;,{&amp;quot;spread&amp;quot;:true,&amp;quot;start&amp;quot;:1400,&amp;quot;end&amp;quot;:3936},&amp;quot;regular_list_item&amp;quot;,{&amp;quot;start&amp;quot;:1920,&amp;quot;end&amp;quot;:2423},&amp;quot;list&amp;quot;,{&amp;quot;spread&amp;quot;:false,&amp;quot;start&amp;quot;:1959,&amp;quot;end&amp;quot;:2423},&amp;quot;regular_list_item&amp;quot;,{&amp;quot;start&amp;quot;:1959,&amp;quot;end&amp;quot;:2074},&amp;quot;list&amp;quot;,{&amp;quot;spread&amp;quot;:false,&amp;quot;start&amp;quot;:1996,&amp;quot;end&amp;quot;:2074},&amp;quot;regular_list_item&amp;quot;,{&amp;quot;start&amp;quot;:1996,&amp;quot;end&amp;quot;:2074}]&quot;&gt;&lt;code&gt;+ createEvent()&lt;/code&gt;&lt;/p&gt;" style="text;strokeColor=none;fillColor=none;align=left;verticalAlign=middle;spacingLeft=4;spacingRight=4;overflow=hidden;points=[[0,0.5],[1,0.5]];portConstraint=eastwest;rotatable=0;whiteSpace=wrap;html=1;" vertex="1" parent="5Gae5XNbPLnrolawcrM5-1">
          <mxGeometry y="80" width="190" height="30" as="geometry" />
        </mxCell>
        <mxCell id="5Gae5XNbPLnrolawcrM5-4" value="&lt;p data-pm-slice=&quot;1 1 [&amp;quot;list&amp;quot;,{&amp;quot;spread&amp;quot;:true,&amp;quot;start&amp;quot;:1400,&amp;quot;end&amp;quot;:3936},&amp;quot;regular_list_item&amp;quot;,{&amp;quot;start&amp;quot;:1920,&amp;quot;end&amp;quot;:2423},&amp;quot;list&amp;quot;,{&amp;quot;spread&amp;quot;:false,&amp;quot;start&amp;quot;:1959,&amp;quot;end&amp;quot;:2423},&amp;quot;regular_list_item&amp;quot;,{&amp;quot;start&amp;quot;:1959,&amp;quot;end&amp;quot;:2074},&amp;quot;list&amp;quot;,{&amp;quot;spread&amp;quot;:false,&amp;quot;start&amp;quot;:1996,&amp;quot;end&amp;quot;:2074},&amp;quot;regular_list_item&amp;quot;,{&amp;quot;start&amp;quot;:1996,&amp;quot;end&amp;quot;:2074}]&quot;&gt;&lt;code&gt;+ updateEvent()&lt;/code&gt;&lt;/p&gt;" style="text;strokeColor=none;fillColor=none;align=left;verticalAlign=middle;spacingLeft=4;spacingRight=4;overflow=hidden;points=[[0,0.5],[1,0.5]];portConstraint=eastwest;rotatable=0;whiteSpace=wrap;html=1;" vertex="1" parent="5Gae5XNbPLnrolawcrM5-1">
          <mxGeometry y="110" width="190" height="30" as="geometry" />
        </mxCell>
        <mxCell id="5Gae5XNbPLnrolawcrM5-5" value="" style="endArrow=diamondThin;endFill=0;endSize=24;html=1;rounded=0;exitX=-0.012;exitY=0.78;exitDx=0;exitDy=0;exitPerimeter=0;" edge="1" parent="1" source="5Gae5XNbPLnrolawcrM5-7">
          <mxGeometry width="160" relative="1" as="geometry">
            <mxPoint x="390" y="70" as="sourcePoint" />
            <mxPoint x="290" y="70" as="targetPoint" />
          </mxGeometry>
        </mxCell>
        <mxCell id="5Gae5XNbPLnrolawcrM5-6" value="&lt;p data-pm-slice=&quot;1 1 [&amp;quot;list&amp;quot;,{&amp;quot;spread&amp;quot;:true,&amp;quot;start&amp;quot;:1400,&amp;quot;end&amp;quot;:3936},&amp;quot;regular_list_item&amp;quot;,{&amp;quot;start&amp;quot;:1920,&amp;quot;end&amp;quot;:2423},&amp;quot;list&amp;quot;,{&amp;quot;spread&amp;quot;:false,&amp;quot;start&amp;quot;:1959,&amp;quot;end&amp;quot;:2423},&amp;quot;regular_list_item&amp;quot;,{&amp;quot;start&amp;quot;:2077,&amp;quot;end&amp;quot;:2244}]&quot;&gt;&lt;code&gt;&lt;b&gt;TicketEventManager&lt;/b&gt;&lt;/code&gt;&lt;/p&gt;" style="swimlane;fontStyle=0;childLayout=stackLayout;horizontal=1;startSize=30;horizontalStack=0;resizeParent=1;resizeParentMax=0;resizeLast=0;collapsible=1;marginBottom=0;whiteSpace=wrap;html=1;" vertex="1" parent="1">
          <mxGeometry x="380" width="170" height="220" as="geometry" />
        </mxCell>
        <mxCell id="5Gae5XNbPLnrolawcrM5-7" value="&lt;p data-pm-slice=&quot;1 1 [&amp;quot;list&amp;quot;,{&amp;quot;spread&amp;quot;:true,&amp;quot;start&amp;quot;:1400,&amp;quot;end&amp;quot;:3936},&amp;quot;regular_list_item&amp;quot;,{&amp;quot;start&amp;quot;:1400,&amp;quot;end&amp;quot;:1918},&amp;quot;list&amp;quot;,{&amp;quot;spread&amp;quot;:false,&amp;quot;start&amp;quot;:1439,&amp;quot;end&amp;quot;:1918},&amp;quot;regular_list_item&amp;quot;,{&amp;quot;start&amp;quot;:1572,&amp;quot;end&amp;quot;:1740},&amp;quot;list&amp;quot;,{&amp;quot;spread&amp;quot;:false,&amp;quot;start&amp;quot;:1614,&amp;quot;end&amp;quot;:1740},&amp;quot;regular_list_item&amp;quot;,{&amp;quot;start&amp;quot;:1614,&amp;quot;end&amp;quot;:1740}]&quot;&gt;&lt;code&gt;+ listeners&lt;/code&gt;&lt;/p&gt;" style="text;strokeColor=default;fillColor=none;align=left;verticalAlign=middle;spacingLeft=4;spacingRight=4;overflow=hidden;points=[[0,0.5],[1,0.5]];portConstraint=eastwest;rotatable=0;whiteSpace=wrap;html=1;strokeWidth=1;" vertex="1" parent="5Gae5XNbPLnrolawcrM5-6">
          <mxGeometry y="30" width="170" height="50" as="geometry" />
        </mxCell>
        <mxCell id="5Gae5XNbPLnrolawcrM5-8" value="&lt;p data-pm-slice=&quot;1 1 [&amp;quot;list&amp;quot;,{&amp;quot;spread&amp;quot;:true,&amp;quot;start&amp;quot;:1400,&amp;quot;end&amp;quot;:3936},&amp;quot;regular_list_item&amp;quot;,{&amp;quot;start&amp;quot;:1920,&amp;quot;end&amp;quot;:2423},&amp;quot;list&amp;quot;,{&amp;quot;spread&amp;quot;:false,&amp;quot;start&amp;quot;:1959,&amp;quot;end&amp;quot;:2423},&amp;quot;regular_list_item&amp;quot;,{&amp;quot;start&amp;quot;:2077,&amp;quot;end&amp;quot;:2244},&amp;quot;list&amp;quot;,{&amp;quot;spread&amp;quot;:false,&amp;quot;start&amp;quot;:2118,&amp;quot;end&amp;quot;:2244},&amp;quot;regular_list_item&amp;quot;,{&amp;quot;start&amp;quot;:2118,&amp;quot;end&amp;quot;:2244}]&quot;&gt;&lt;code&gt;+ subscribe(eventType, listener)&lt;/code&gt;&lt;/p&gt;" style="text;strokeColor=none;fillColor=none;align=left;verticalAlign=middle;spacingLeft=4;spacingRight=4;overflow=hidden;points=[[0,0.5],[1,0.5]];portConstraint=eastwest;rotatable=0;whiteSpace=wrap;html=1;" vertex="1" parent="5Gae5XNbPLnrolawcrM5-6">
          <mxGeometry y="80" width="170" height="50" as="geometry" />
        </mxCell>
        <mxCell id="5Gae5XNbPLnrolawcrM5-9" value="&lt;p data-pm-slice=&quot;1 1 [&amp;quot;list&amp;quot;,{&amp;quot;spread&amp;quot;:true,&amp;quot;start&amp;quot;:1400,&amp;quot;end&amp;quot;:3936},&amp;quot;regular_list_item&amp;quot;,{&amp;quot;start&amp;quot;:1400,&amp;quot;end&amp;quot;:1918},&amp;quot;list&amp;quot;,{&amp;quot;spread&amp;quot;:false,&amp;quot;start&amp;quot;:1439,&amp;quot;end&amp;quot;:1918},&amp;quot;regular_list_item&amp;quot;,{&amp;quot;start&amp;quot;:1572,&amp;quot;end&amp;quot;:1740},&amp;quot;list&amp;quot;,{&amp;quot;spread&amp;quot;:false,&amp;quot;start&amp;quot;:1614,&amp;quot;end&amp;quot;:1740},&amp;quot;regular_list_item&amp;quot;,{&amp;quot;start&amp;quot;:1614,&amp;quot;end&amp;quot;:1740}]&quot;&gt;&lt;code&gt;+ unsubscribe(eventType, listener)&lt;/code&gt;&lt;/p&gt;&lt;p data-pm-slice=&quot;1 1 [&amp;quot;list&amp;quot;,{&amp;quot;spread&amp;quot;:true,&amp;quot;start&amp;quot;:1400,&amp;quot;end&amp;quot;:3936},&amp;quot;regular_list_item&amp;quot;,{&amp;quot;start&amp;quot;:1400,&amp;quot;end&amp;quot;:1918},&amp;quot;list&amp;quot;,{&amp;quot;spread&amp;quot;:false,&amp;quot;start&amp;quot;:1439,&amp;quot;end&amp;quot;:1918},&amp;quot;regular_list_item&amp;quot;,{&amp;quot;start&amp;quot;:1572,&amp;quot;end&amp;quot;:1740},&amp;quot;list&amp;quot;,{&amp;quot;spread&amp;quot;:false,&amp;quot;start&amp;quot;:1614,&amp;quot;end&amp;quot;:1740},&amp;quot;regular_list_item&amp;quot;,{&amp;quot;start&amp;quot;:1614,&amp;quot;end&amp;quot;:1740}]&quot;&gt;&lt;code&gt;+ notify(eventType, data)&lt;/code&gt;&lt;/p&gt;" style="text;strokeColor=none;fillColor=none;align=left;verticalAlign=middle;spacingLeft=4;spacingRight=4;overflow=hidden;points=[[0,0.5],[1,0.5]];portConstraint=eastwest;rotatable=0;whiteSpace=wrap;html=1;" vertex="1" parent="5Gae5XNbPLnrolawcrM5-6">
          <mxGeometry y="130" width="170" height="90" as="geometry" />
        </mxCell>
        <mxCell id="5Gae5XNbPLnrolawcrM5-10" value="" style="endArrow=diamondThin;endFill=0;endSize=24;html=1;rounded=0;" edge="1" parent="1">
          <mxGeometry width="160" relative="1" as="geometry">
            <mxPoint x="465" y="290" as="sourcePoint" />
            <mxPoint x="464.5" y="220" as="targetPoint" />
          </mxGeometry>
        </mxCell>
        <mxCell id="5Gae5XNbPLnrolawcrM5-11" value="«interface»&lt;br&gt;&lt;p data-pm-slice=&quot;1 1 [&amp;quot;list&amp;quot;,{&amp;quot;spread&amp;quot;:true,&amp;quot;start&amp;quot;:1400,&amp;quot;end&amp;quot;:3936},&amp;quot;regular_list_item&amp;quot;,{&amp;quot;start&amp;quot;:1920,&amp;quot;end&amp;quot;:2423},&amp;quot;list&amp;quot;,{&amp;quot;spread&amp;quot;:false,&amp;quot;start&amp;quot;:1959,&amp;quot;end&amp;quot;:2423},&amp;quot;regular_list_item&amp;quot;,{&amp;quot;start&amp;quot;:2247,&amp;quot;end&amp;quot;:2328}]&quot;&gt;&lt;code&gt;&lt;b&gt;EventBookingListener&lt;/b&gt;&lt;/code&gt;&lt;/p&gt;" style="html=1;whiteSpace=wrap;" vertex="1" parent="1">
          <mxGeometry x="375" y="290" width="185" height="60" as="geometry" />
        </mxCell>
        <mxCell id="5Gae5XNbPLnrolawcrM5-12" value="&lt;p data-pm-slice=&quot;1 1 [&amp;quot;list&amp;quot;,{&amp;quot;spread&amp;quot;:true,&amp;quot;start&amp;quot;:1400,&amp;quot;end&amp;quot;:3936},&amp;quot;regular_list_item&amp;quot;,{&amp;quot;start&amp;quot;:1400,&amp;quot;end&amp;quot;:1918},&amp;quot;list&amp;quot;,{&amp;quot;spread&amp;quot;:false,&amp;quot;start&amp;quot;:1439,&amp;quot;end&amp;quot;:1918},&amp;quot;regular_list_item&amp;quot;,{&amp;quot;start&amp;quot;:1743,&amp;quot;end&amp;quot;:1830},&amp;quot;list&amp;quot;,{&amp;quot;spread&amp;quot;:false,&amp;quot;start&amp;quot;:1804,&amp;quot;end&amp;quot;:1830},&amp;quot;regular_list_item&amp;quot;,{&amp;quot;start&amp;quot;:1804,&amp;quot;end&amp;quot;:1830}]&quot;&gt;&lt;code&gt;+ update(data)&lt;/code&gt;&lt;/p&gt;" style="html=1;whiteSpace=wrap;" vertex="1" parent="1">
          <mxGeometry x="375" y="350" width="185" height="50" as="geometry" />
        </mxCell>
        <mxCell id="5Gae5XNbPLnrolawcrM5-13" value="" style="endArrow=classic;html=1;rounded=0;dashed=1;entryX=0.465;entryY=0.94;entryDx=0;entryDy=0;entryPerimeter=0;" edge="1" parent="1" target="5Gae5XNbPLnrolawcrM5-12">
          <mxGeometry width="50" height="50" relative="1" as="geometry">
            <mxPoint x="461" y="440" as="sourcePoint" />
            <mxPoint x="470" y="410" as="targetPoint" />
          </mxGeometry>
        </mxCell>
        <mxCell id="5Gae5XNbPLnrolawcrM5-14" value="" style="endArrow=none;html=1;rounded=0;dashed=1;" edge="1" parent="1">
          <mxGeometry width="50" height="50" relative="1" as="geometry">
            <mxPoint x="375" y="440" as="sourcePoint" />
            <mxPoint x="465" y="440" as="targetPoint" />
          </mxGeometry>
        </mxCell>
        <mxCell id="5Gae5XNbPLnrolawcrM5-15" value="" style="endArrow=none;html=1;rounded=0;dashed=1;" edge="1" parent="1">
          <mxGeometry width="50" height="50" relative="1" as="geometry">
            <mxPoint x="375" y="480" as="sourcePoint" />
            <mxPoint x="375" y="440" as="targetPoint" />
          </mxGeometry>
        </mxCell>
        <mxCell id="5Gae5XNbPLnrolawcrM5-16" value="" style="endArrow=none;html=1;rounded=0;dashed=1;" edge="1" parent="1">
          <mxGeometry width="50" height="50" relative="1" as="geometry">
            <mxPoint x="460" y="440" as="sourcePoint" />
            <mxPoint x="550" y="440" as="targetPoint" />
          </mxGeometry>
        </mxCell>
        <mxCell id="5Gae5XNbPLnrolawcrM5-17" value="" style="endArrow=none;html=1;rounded=0;dashed=1;" edge="1" parent="1">
          <mxGeometry width="50" height="50" relative="1" as="geometry">
            <mxPoint x="549" y="480" as="sourcePoint" />
            <mxPoint x="549" y="440" as="targetPoint" />
          </mxGeometry>
        </mxCell>
        <mxCell id="5Gae5XNbPLnrolawcrM5-18" value="&lt;p data-pm-slice=&quot;1 1 [&amp;quot;list&amp;quot;,{&amp;quot;spread&amp;quot;:true,&amp;quot;start&amp;quot;:1400,&amp;quot;end&amp;quot;:3936},&amp;quot;regular_list_item&amp;quot;,{&amp;quot;start&amp;quot;:1920,&amp;quot;end&amp;quot;:2423},&amp;quot;list&amp;quot;,{&amp;quot;spread&amp;quot;:false,&amp;quot;start&amp;quot;:1959,&amp;quot;end&amp;quot;:2423},&amp;quot;regular_list_item&amp;quot;,{&amp;quot;start&amp;quot;:2331,&amp;quot;end&amp;quot;:2423}]&quot;&gt;&lt;code&gt;&lt;font style=&quot;font-size: 13px;&quot;&gt;&lt;b&gt;TicketUpdateListener&lt;/b&gt;&lt;/font&gt;&lt;/code&gt;&lt;/p&gt;" style="swimlane;fontStyle=0;align=center;verticalAlign=top;childLayout=stackLayout;horizontal=1;startSize=40;horizontalStack=0;resizeParent=1;resizeParentMax=0;resizeLast=0;collapsible=1;marginBottom=0;whiteSpace=wrap;html=1;fontSize=9;" vertex="1" parent="1">
          <mxGeometry x="300" y="480" width="160" height="80" as="geometry" />
        </mxCell>
        <mxCell id="5Gae5XNbPLnrolawcrM5-19" value="&lt;p data-pm-slice=&quot;1 1 [&amp;quot;list&amp;quot;,{&amp;quot;spread&amp;quot;:true,&amp;quot;start&amp;quot;:1400,&amp;quot;end&amp;quot;:3936},&amp;quot;regular_list_item&amp;quot;,{&amp;quot;start&amp;quot;:1400,&amp;quot;end&amp;quot;:1918},&amp;quot;list&amp;quot;,{&amp;quot;spread&amp;quot;:false,&amp;quot;start&amp;quot;:1439,&amp;quot;end&amp;quot;:1918},&amp;quot;regular_list_item&amp;quot;,{&amp;quot;start&amp;quot;:1833,&amp;quot;end&amp;quot;:1918},&amp;quot;list&amp;quot;,{&amp;quot;spread&amp;quot;:false,&amp;quot;start&amp;quot;:1892,&amp;quot;end&amp;quot;:1918},&amp;quot;regular_list_item&amp;quot;,{&amp;quot;start&amp;quot;:1892,&amp;quot;end&amp;quot;:1918}]&quot;&gt;&lt;code&gt;+ update(data)&lt;/code&gt;&lt;/p&gt;" style="text;strokeColor=none;fillColor=none;align=left;verticalAlign=top;spacingLeft=4;spacingRight=4;overflow=hidden;rotatable=0;points=[[0,0.5],[1,0.5]];portConstraint=eastwest;whiteSpace=wrap;html=1;fontStyle=0" vertex="1" parent="5Gae5XNbPLnrolawcrM5-18">
          <mxGeometry y="40" width="160" height="40" as="geometry" />
        </mxCell>
        <mxCell id="5Gae5XNbPLnrolawcrM5-20" value="&lt;p data-pm-slice=&quot;1 1 [&amp;quot;list&amp;quot;,{&amp;quot;spread&amp;quot;:true,&amp;quot;start&amp;quot;:1400,&amp;quot;end&amp;quot;:3936},&amp;quot;regular_list_item&amp;quot;,{&amp;quot;start&amp;quot;:1920,&amp;quot;end&amp;quot;:2423},&amp;quot;list&amp;quot;,{&amp;quot;spread&amp;quot;:false,&amp;quot;start&amp;quot;:1959,&amp;quot;end&amp;quot;:2423},&amp;quot;regular_list_item&amp;quot;,{&amp;quot;start&amp;quot;:2331,&amp;quot;end&amp;quot;:2423}]&quot;&gt;&lt;code&gt;&lt;font style=&quot;font-size: 12px;&quot;&gt;ScheduleChangeListener&lt;/font&gt;&lt;/code&gt;&lt;/p&gt;" style="swimlane;fontStyle=1;align=center;verticalAlign=top;childLayout=stackLayout;horizontal=1;startSize=40;horizontalStack=0;resizeParent=1;resizeParentMax=0;resizeLast=0;collapsible=1;marginBottom=0;whiteSpace=wrap;html=1;fontSize=9;" vertex="1" parent="1">
          <mxGeometry x="480" y="480" width="160" height="80" as="geometry" />
        </mxCell>
        <mxCell id="5Gae5XNbPLnrolawcrM5-21" value="&lt;p data-pm-slice=&quot;1 1 [&amp;quot;list&amp;quot;,{&amp;quot;spread&amp;quot;:true,&amp;quot;start&amp;quot;:1400,&amp;quot;end&amp;quot;:3936},&amp;quot;regular_list_item&amp;quot;,{&amp;quot;start&amp;quot;:1400,&amp;quot;end&amp;quot;:1918},&amp;quot;list&amp;quot;,{&amp;quot;spread&amp;quot;:false,&amp;quot;start&amp;quot;:1439,&amp;quot;end&amp;quot;:1918},&amp;quot;regular_list_item&amp;quot;,{&amp;quot;start&amp;quot;:1833,&amp;quot;end&amp;quot;:1918},&amp;quot;list&amp;quot;,{&amp;quot;spread&amp;quot;:false,&amp;quot;start&amp;quot;:1892,&amp;quot;end&amp;quot;:1918},&amp;quot;regular_list_item&amp;quot;,{&amp;quot;start&amp;quot;:1892,&amp;quot;end&amp;quot;:1918}]&quot;&gt;&lt;code&gt;+ update(data)&lt;/code&gt;&lt;/p&gt;" style="text;strokeColor=none;fillColor=none;align=left;verticalAlign=top;spacingLeft=4;spacingRight=4;overflow=hidden;rotatable=0;points=[[0,0.5],[1,0.5]];portConstraint=eastwest;whiteSpace=wrap;html=1;" vertex="1" parent="5Gae5XNbPLnrolawcrM5-20">
          <mxGeometry y="40" width="160" height="40" as="geometry" />
        </mxCell>
      </root>
    </mxGraphModel>
  </diagram>
</mxfile>
